<?xml version="1.0" encoding="UTF-8"?>
<svg version="1.1" xmlns="http://www.w3.org/2000/svg" width="512" height="512">
<path d="M0 0 C5.32416958 3.08758195 8.8327447 7.45340858 10.625 13.375 C10.90433621 16.59493267 10.87763796 19.80035181 10.85205078 23.03051758 C10.85234283 23.9968512 10.85263489 24.96318481 10.85293579 25.95880127 C10.85154492 29.1458033 10.83599498 32.33257017 10.8203125 35.51953125 C10.81658151 37.73198824 10.81373494 39.94444689 10.81173706 42.15690613 C10.80410739 47.97497127 10.78446452 53.79293628 10.7623291 59.61096191 C10.74185639 65.54987229 10.73273229 71.48879887 10.72265625 77.42773438 C10.70121808 89.07686687 10.66709008 100.7259251 10.625 112.375 C11.23852325 112.4362204 11.85204651 112.4974408 12.48416138 112.56051636 C13.69493851 112.68694016 13.69493851 112.68694016 14.93017578 112.81591797 C15.72932404 112.89776337 16.52847229 112.97960876 17.35183716 113.06393433 C30.54378425 114.8691556 44.84951691 125.03146838 52.94140625 135.3203125 C64.42380943 150.99421741 70.2282089 168.91334916 67.31591797 188.44824219 C63.93913889 206.77686429 54.57336778 222.14352367 39.625 233.375 C32.70062982 237.93029749 25.96942832 241.17362498 17.86254883 242.98291016 C16.69387772 243.24576813 15.5252066 243.5086261 14.32112122 243.77944946 C12.98654121 244.07424698 12.98654121 244.07424698 11.625 244.375 C11.63388245 245.59751465 11.64276489 246.8200293 11.6519165 248.07958984 C11.73309003 259.61450359 11.79300765 271.14935919 11.83224869 282.68449402 C11.8531013 288.61449104 11.88137698 294.54425702 11.92675781 300.47412109 C11.97029773 306.19942488 11.9941546 311.92450677 12.00450897 317.64996338 C12.01188566 319.83159883 12.02629061 322.01322248 12.04792023 324.19476318 C12.0770619 327.2564088 12.08095143 330.31714371 12.07910156 333.37890625 C12.09348267 334.27586716 12.10786377 335.17282806 12.12268066 336.0969696 C12.08045303 342.57856312 10.74752651 348.08113074 6.17755508 352.90187073 C0.35735148 357.95572481 -3.9743166 358.86655168 -11.5406189 358.73422241 C-18.9200909 358.04287962 -25.85763177 355.78663427 -32.92578125 353.64453125 C-34.63667325 353.14028578 -36.34803641 352.6376366 -38.05982971 352.13645935 C-42.65238567 350.78734324 -47.23841113 349.41717813 -51.82357025 348.04316711 C-56.66056751 346.59799916 -61.50358925 345.17332085 -66.34619141 343.74707031 C-74.25017061 341.41711151 -82.15117456 339.07733828 -90.05029297 336.73095703 C-100.20323904 333.71644195 -110.365813 330.73602962 -120.53515625 327.77734375 C-121.28224476 327.55995859 -122.02933327 327.34257343 -122.79906082 327.11860085 C-125.76735859 326.25503773 -128.73572496 325.39171125 -131.70422173 324.52883244 C-136.78588022 323.05158667 -141.86644591 321.57063397 -146.94628906 320.0871582 C-147.66370333 319.87765124 -148.38111759 319.66814428 -149.12027168 319.45228863 C-150.57041477 319.02877847 -152.02055476 318.60525774 -153.47069168 318.18172646 C-165.06889414 314.79456955 -176.66951977 311.41585173 -188.27264404 308.04559326 C-194.08850783 306.35630829 -199.90382146 304.665133 -205.71902466 302.97357559 C-210.43792499 301.60110951 -215.15753421 300.23111882 -219.87771511 298.86306381 C-222.79750388 298.01613629 -225.71656629 297.16672605 -228.63544655 296.31667328 C-229.97183216 295.92801972 -231.30850607 295.54035565 -232.64551353 295.15384674 C-239.63106987 293.13386943 -246.58823211 291.03524619 -253.50366211 288.78710938 C-255.31271278 288.20092834 -255.31271278 288.20092834 -257.15830994 287.60290527 C-263.0337617 285.3600724 -267.17992517 282.14081532 -270.8125 277.0625 C-273.99497932 273.72477779 -275.97019563 273.57865682 -280.43798828 273.42016602 C-281.39680908 273.39780884 -281.39680908 273.39780884 -282.375 273.375 C-282.10474251 274.49504173 -282.10474251 274.49504173 -281.82902527 275.63771057 C-279.69029017 284.67912438 -277.91367971 293.76588898 -276.23828125 302.90234375 C-276.02727311 304.04976642 -276.02727311 304.04976642 -275.81200218 305.22036934 C-275.06918715 309.26238404 -274.33028365 313.3050916 -273.59448242 317.34838867 C-272.84180973 321.47954693 -272.07477124 325.6079025 -271.30453205 329.735816 C-270.70684758 332.95431042 -270.1202913 336.17476523 -269.53655052 339.3958149 C-269.25884499 340.91732183 -268.9770803 342.43809465 -268.69085121 343.95802116 C-263.80270929 369.98164718 -263.80270929 369.98164718 -269.76171875 380.1875 C-274.43474875 386.52381187 -279.76090772 390.25323308 -287.375 392.375 C-290.66066582 392.77816265 -293.90349516 392.79657935 -297.2109375 392.7734375 C-298.59002792 392.77774277 -298.59002792 392.77774277 -299.99697876 392.78213501 C-301.9315859 392.78416589 -303.86621402 392.77870476 -305.80078125 392.76611328 C-308.73485102 392.75008277 -311.66753572 392.76597639 -314.6015625 392.78515625 C-316.4921905 392.78317293 -318.38281764 392.77932741 -320.2734375 392.7734375 C-321.56923233 392.78254654 -321.56923233 392.78254654 -322.89120483 392.7918396 C-333.93885108 392.66662094 -342.13775543 389.39567358 -350.0625 381.74609375 C-356.27785516 375.04904856 -358.79593508 366.94814277 -360.48144531 358.13916016 C-360.65759369 357.26484344 -360.83374207 356.39052673 -361.01522827 355.48971558 C-361.58806528 352.63308975 -362.14581708 349.77375478 -362.703125 346.9140625 C-363.10012901 344.91612249 -363.49799019 342.91835264 -363.89666748 340.92074585 C-364.72659491 336.75130114 -365.54967283 332.58058742 -366.3671875 328.40869141 C-367.41598411 323.05682514 -368.47654858 317.70738125 -369.54152298 312.35871315 C-370.55766486 307.25294197 -371.56817956 302.14606235 -372.578125 297.0390625 C-372.77137611 296.06413471 -372.96462723 295.08920692 -373.16373444 294.08473587 C-373.70764014 291.33524784 -374.24755705 288.58500904 -374.78613281 285.83447266 C-374.94816193 285.01783142 -375.11019104 284.20119019 -375.27713013 283.35980225 C-375.86955479 280.31625892 -376.375 277.48383443 -376.375 274.375 C-377.35339844 274.39820313 -378.33179688 274.42140625 -379.33984375 274.4453125 C-391.06706713 274.6067492 -400.10422829 274.28652323 -409.375 266.375 C-422.32035323 252.48917239 -418.56270248 229.42521276 -418.61328125 211.796875 C-418.61735678 210.58871376 -418.6214323 209.38055252 -418.62563133 208.13578033 C-418.64635121 201.75588663 -418.66072008 195.37601362 -418.67016602 188.99609375 C-418.68127787 182.43398557 -418.71577327 175.87221198 -418.75533772 169.31022263 C-418.78152121 164.23312772 -418.78985879 159.15611308 -418.79344749 154.0789566 C-418.79829881 151.65977943 -418.80987089 149.24060548 -418.82848549 146.82149506 C-418.8529423 143.43638958 -418.85190106 140.05215972 -418.8449707 136.66699219 C-418.85778076 135.68282318 -418.87059082 134.69865417 -418.88378906 133.68466187 C-418.82402246 125.62982316 -417.08425472 117.55065017 -412.125 111 C-403.11563486 102.40015146 -394.36166411 101.07078573 -382.28930664 101.14794922 C-381.08859528 101.14765717 -379.88788391 101.14736511 -378.65078735 101.14706421 C-375.37644366 101.14821453 -372.10227339 101.15820916 -368.82796407 101.17221212 C-365.39935012 101.18475867 -361.97073236 101.18589307 -358.542099 101.18826294 C-352.05763595 101.19446622 -345.57324076 101.21086135 -339.08880752 101.23096192 C-331.70306373 101.25335688 -324.31731661 101.26432338 -316.93154728 101.27435279 C-301.74599379 101.29522867 -286.5605037 101.33038212 -271.375 101.375 C-271.08187298 100.75147487 -270.78874596 100.12794973 -270.4867363 99.4855299 C-266.54436528 92.00129833 -257.17837093 88.67712301 -249.671875 86.01171875 C-248.63101746 85.62686813 -247.59015991 85.24201752 -246.51776123 84.84550476 C-243.05867581 83.56991355 -239.59190551 82.31666385 -236.125 81.0625 C-233.63536789 80.1478344 -231.14633864 79.23170036 -228.65820312 78.31298828 C-224.70078232 76.85274718 -220.74294717 75.39370925 -216.7824707 73.94177246 C-207.12278518 70.39942552 -197.48472745 66.8025265 -187.859375 63.16796875 C-187.16812971 62.90696821 -186.47688442 62.64596767 -185.76469231 62.37705803 C-182.23240653 61.04301214 -178.70046414 59.70805977 -175.16867065 58.37271118 C-167.90227979 55.62579304 -160.63272256 52.88727028 -153.36328125 50.1484375 C-152.63107927 49.87253344 -151.8988773 49.59662937 -151.14448738 49.31236458 C-139.65557048 44.98341371 -128.16298393 40.66429254 -116.66796875 36.3515625 C-115.89445887 36.06131887 -115.12094898 35.77107525 -114.3239994 35.47203636 C-105.87709156 32.30270315 -97.42878201 29.13716889 -88.9777832 25.97875977 C-86.02674002 24.87547127 -83.07582304 23.7718459 -80.125 22.66796875 C-79.40789038 22.39974619 -78.69078075 22.13152363 -77.95194054 21.85517311 C-68.13470013 18.18129752 -58.34151262 14.45022008 -48.5625 10.67578125 C-45.25579943 9.40708316 -41.94854162 8.13985141 -38.64102173 6.87329102 C-35.6696843 5.72878546 -32.70638931 4.56508095 -29.74291992 3.40039062 C-10.06044178 -4.20711589 -10.06044178 -4.20711589 0 0 Z M-19.18237305 22.42504883 C-20.39398605 22.87948868 -21.60559906 23.33392853 -22.85392761 23.80213928 C-24.1982208 24.31202556 -25.5424835 24.82199224 -26.88671875 25.33203125 C-28.29913537 25.86379806 -29.71172199 26.39511355 -31.12446594 26.92601013 C-34.17024199 28.07164353 -37.2148331 29.22035365 -40.25854492 30.37145996 C-45.10220774 32.20326618 -49.94834623 34.02845593 -54.79492188 35.85253906 C-60.71048046 38.07941495 -66.62545047 40.30784082 -72.53969002 42.53821754 C-83.27863974 46.58783286 -94.02254824 50.62409953 -104.76953125 54.65234375 C-105.54973822 54.94479036 -106.32994518 55.23723698 -107.13379478 55.53854561 C-111.01625778 56.9937364 -114.89880824 58.44869364 -118.78140259 59.90353394 C-125.58912271 62.45455998 -132.39609489 65.00758054 -139.20311546 67.56047249 C-142.71871372 68.87893645 -146.23435858 70.19727614 -149.75 71.515625 C-151.06250023 72.00781188 -152.37500024 72.49999936 -153.6875 72.9921875 C-157.04166667 74.25 -160.39583333 75.5078125 -163.75 76.765625 C-164.70264236 77.12286652 -165.65528473 77.48010803 -166.63679504 77.84817505 C-168.43080988 78.52092936 -170.22482634 79.19367936 -172.0188446 79.86642456 C-175.9954307 81.35762347 -179.97199302 82.84888571 -183.94848633 84.34033203 C-191.10560072 87.02463468 -198.26308161 89.7079527 -205.4213562 92.38916016 C-209.08561883 93.76171384 -212.74972467 95.13468583 -216.41381836 96.50769043 C-218.14193054 97.15511526 -219.8701172 97.80234134 -221.59838867 98.44934082 C-226.17597085 100.16303131 -230.75178907 101.88127114 -235.32546997 103.60534668 C-237.31116985 104.35103007 -239.2996785 105.08874656 -241.28881836 105.82519531 C-242.45421143 106.26186523 -243.61960449 106.69853516 -244.8203125 107.1484375 C-245.82465332 107.52145996 -246.82899414 107.89448242 -247.86376953 108.27880859 C-252.16722969 110.15733631 -254.41904337 112.38587747 -256.4739399 116.66163731 C-257.4830967 119.70051165 -257.61698617 122.09006325 -257.60446167 125.2888031 C-257.60457748 126.47340118 -257.6046933 127.65799927 -257.60481262 128.87849426 C-257.59455551 130.16954575 -257.5842984 131.46059723 -257.57373047 132.79077148 C-257.56985004 134.17091674 -257.56680443 135.55106455 -257.56452942 136.93121338 C-257.55546261 140.6730264 -257.53325492 144.41465031 -257.50758505 148.15638232 C-257.48701157 151.28259467 -257.47205012 154.40882495 -257.45682538 157.53506714 C-257.42048418 164.91156183 -257.37264705 172.28792415 -257.31835938 179.66430664 C-257.262656 187.26859278 -257.22921477 194.87275552 -257.20625198 202.47720474 C-257.18556767 209.01164216 -257.14959505 215.54587946 -257.1017276 222.08017403 C-257.07339997 225.98042307 -257.05117079 229.88046997 -257.04424667 233.78082085 C-257.03718774 237.44923378 -257.01106005 241.11702747 -256.97041893 244.78521729 C-256.95316812 246.76873297 -256.95545304 248.7523886 -256.95835876 250.73597717 C-256.93816914 259.41348362 -256.93816914 259.41348362 -252.375 266.375 C-250.05188243 267.79449717 -250.05188243 267.79449717 -247.40722656 268.51635742 C-246.43241333 268.82938812 -245.4576001 269.14241882 -244.45324707 269.4649353 C-243.43742554 269.76525665 -242.421604 270.065578 -241.375 270.375 C-240.40203979 270.67652985 -239.42907959 270.97805969 -238.42663574 271.28872681 C-235.24547641 272.25939469 -232.0546173 273.19006104 -228.859375 274.11328125 C-227.6485173 274.46636856 -226.43765961 274.81945587 -225.19010925 275.1832428 C-221.86839652 276.15178303 -218.54539294 277.11582323 -215.2221489 278.07909393 C-211.64152702 279.1178719 -208.06216668 280.16097971 -204.48266602 281.20361328 C-198.32323113 282.99716063 -192.16307764 284.78822046 -186.00244141 286.57763672 C-176.34799967 289.38198658 -166.69531728 292.19236146 -157.04296875 295.00390625 C-153.76669161 295.95820035 -150.49040694 296.91246855 -147.21411133 297.86669922 C-146.39900432 298.10410324 -145.5838973 298.34150726 -144.74409008 298.58610535 C-138.95431821 300.27224918 -133.16413539 301.95697693 -127.3737793 303.64111328 C-111.3939379 308.2892882 -95.41626292 312.9446077 -79.44499779 317.62217712 C-74.4852446 319.07448354 -69.52504984 320.52528142 -64.56489277 321.97620773 C-59.90312219 323.34011686 -55.24216336 324.70675512 -50.58181763 326.07552433 C-47.70000544 326.92122057 -44.81743038 327.76429359 -41.93465805 328.60671043 C-40.00529259 329.17137532 -38.0768552 329.7392084 -36.14846802 330.3072052 C-27.27693816 332.89610358 -18.35209118 335.1879548 -9.375 337.375 C-9.34315801 314.7291735 -9.32362451 292.08334571 -9.3125 269.4375 C-9.31184855 268.15042617 -9.31184855 268.15042617 -9.31118393 266.83735085 C-9.28236087 208.26490239 -9.48350911 149.69611959 -9.875 91.125 C-9.88097372 90.22941203 -9.88694743 89.33382405 -9.89310217 88.41109705 C-10.04455267 65.73233069 -10.20460945 43.05363205 -10.375 20.375 C-13.81786569 20.375 -15.96094337 21.20938628 -19.18237305 22.42504883 Z M-396.375 126.375 C-397.90109185 129.42718371 -397.5135096 132.60880771 -397.50439453 135.95703125 C-397.50614685 136.74151642 -397.50789917 137.52600159 -397.50970459 138.33425903 C-397.51413344 140.95202807 -397.51117256 143.56973015 -397.5078125 146.1875 C-397.50848738 148.03133151 -397.50945894 149.87516293 -397.51071167 151.71899414 C-397.51219173 155.61312698 -397.51003209 159.507237 -397.50537109 163.40136719 C-397.50089234 167.32651289 -397.50072261 171.25161233 -397.50537109 175.17675781 C-397.52079005 188.24343303 -397.48365547 201.30874849 -397.375 214.375 C-397.36850937 215.24338501 -397.36201874 216.11177002 -397.35533142 217.00646973 C-397.31658764 221.9072835 -397.25551423 226.80680818 -397.15792465 231.70681763 C-397.13106423 233.1776387 -397.11066485 234.64859395 -397.09717178 236.11959839 C-397.07698009 238.12298013 -397.02921336 240.12602777 -396.97998047 242.12890625 C-396.9598288 243.24595947 -396.93967712 244.3630127 -396.91891479 245.51391602 C-396.25128208 249.02577721 -395.1658326 250.20417193 -392.375 252.375 C-389.49005987 253.33664671 -387.75303838 253.48743264 -384.76228333 253.45729065 C-383.34251945 253.44673141 -383.34251945 253.44673141 -381.89407349 253.43595886 C-380.33932816 253.41653984 -380.33932816 253.41653984 -378.75317383 253.39672852 C-377.66033585 253.38712097 -376.56749786 253.37751343 -375.44154358 253.36761475 C-371.82164156 253.33457764 -368.20185846 253.29426308 -364.58203125 253.25390625 C-362.07525555 253.22960975 -359.56847543 253.20576596 -357.06169128 253.18235779 C-351.13311572 253.12590137 -345.20459835 253.06487177 -339.27609223 253.00163645 C-331.86444511 252.9228609 -324.45273236 252.85116804 -317.04101562 252.77929688 C-303.81894971 252.6502242 -290.59695621 252.51483804 -277.375 252.375 C-277.35148137 240.59301781 -277.33388908 228.81104151 -277.32318783 217.02904034 C-277.31804314 211.55393818 -277.31110567 206.07885246 -277.29956055 200.60375977 C-277.24594827 174.50842905 -277.39821514 148.45405614 -278.375 122.375 C-293.02195077 122.28152595 -307.66886202 122.21100585 -322.31605053 122.16775131 C-329.11713321 122.1471329 -335.91803048 122.11902646 -342.71899414 122.07324219 C-349.28067422 122.02908987 -355.84221213 122.00587075 -362.40404701 121.99549103 C-364.90913236 121.98809273 -367.414207 121.97364587 -369.91921043 121.95207977 C-373.424482 121.92309877 -376.92895433 121.91904193 -380.43432617 121.92089844 C-381.99231178 121.89932678 -381.99231178 121.89932678 -383.58177185 121.87731934 C-389.08560534 121.90892063 -392.48184386 122.03027785 -396.375 126.375 Z M10.625 133.375 C10.5403568 152.17474272 10.77178769 170.96341906 11.08856201 189.75958252 C11.15038763 193.45493165 11.20984098 197.150319 11.26953125 200.84570312 C11.38578134 208.0221734 11.50452738 215.19859922 11.625 222.375 C22.8633967 220.24966713 31.95913457 213.72478679 38.703125 204.546875 C45.37498789 193.83825473 48.45428147 182.05163386 46.0859375 169.5234375 C42.59923866 155.61495752 35.11974332 146.20808736 23.47265625 137.84765625 C20.7837283 136.45708583 18.34281777 135.62848869 15.44702148 134.78295898 C14.54459213 134.51780991 13.64216278 134.25266083 12.71238708 133.97947693 C12.02354935 133.77999954 11.33471161 133.58052216 10.625 133.375 Z M-354.375 273.375 C-353.77974872 279.9227641 -353.20949377 286.10241503 -351.94799805 292.48925781 C-351.80797363 293.22089142 -351.66794922 293.95252502 -351.52368164 294.70632935 C-351.06725951 297.08144696 -350.60262102 299.45485013 -350.13671875 301.828125 C-349.81130684 303.4995494 -349.4860171 305.1709976 -349.1608429 306.84246826 C-348.48148892 310.32612679 -347.79743413 313.80882547 -347.1105957 317.29101562 C-346.23410955 321.73912678 -345.37450928 326.19032227 -344.51898479 330.64250565 C-343.85411057 334.08784549 -343.17778817 337.53086587 -342.49830055 340.97335052 C-342.17647106 342.61349522 -341.8587334 344.25444865 -341.54529381 345.89621735 C-341.10558196 348.19279928 -340.64984567 350.48565949 -340.19018555 352.77832031 C-340.06587662 353.44652802 -339.94156769 354.11473572 -339.81349182 354.80319214 C-338.57868572 360.80539034 -336.40251931 366.28770087 -331.15112305 369.78149414 C-327.12266467 371.78946702 -323.39428352 371.93856725 -318.95703125 371.87109375 C-318.17736496 371.87254898 -317.39769867 371.87400421 -316.59440613 371.87550354 C-314.95816279 371.87385355 -313.32190246 371.86239389 -311.68579102 371.84155273 C-309.18373895 371.81245626 -306.68379125 371.82098937 -304.18164062 371.83398438 C-302.58592723 371.82775006 -300.99022049 371.81936153 -299.39453125 371.80859375 C-298.64967972 371.81152939 -297.90482819 371.81446503 -297.1374054 371.81748962 C-292.89333769 371.74034926 -290.37221789 371.45367919 -287.375 368.375 C-286.17042981 358.17418944 -289.87816212 346.19166677 -291.75390625 336.16796875 C-292.08936745 334.34819664 -292.42423158 332.52831438 -292.75852966 330.70832825 C-293.63212209 325.96119936 -294.51371837 321.21559245 -295.39709473 316.47027588 C-296.45955552 310.75345921 -297.51188066 305.03476891 -298.56594086 299.31639862 C-300.16127742 290.66782028 -301.76932354 282.02169335 -303.375 273.375 C-320.205 273.375 -337.035 273.375 -354.375 273.375 Z " fill="#000000" transform="translate(431.375,60.625)"/>
</svg>
